<svg width="19" height="19" viewBox="0 0 19 19" fill="none" xmlns="http://www.w3.org/2000/svg">
<rect x="2.25816" y="2.35382" width="13.4648" height="13.535" rx="6.73239" transform="rotate(-0.357597 2.25816 2.35382)" fill="white"/>
<path fill-rule="evenodd" clip-rule="evenodd" d="M9.06549 18.1025C14.036 18.0715 18.0402 14.017 18.0091 9.04651C17.9781 4.07604 13.9236 0.0718341 8.95315 0.102856C3.98268 0.133879 -0.0215281 4.18839 0.00949413 9.15885C0.0405164 14.1293 4.09502 18.1335 9.06549 18.1025ZM3.67878 9.88631L6.64839 12.5181C7.03049 12.8567 7.60634 12.8531 7.98418 12.5097L14.33 6.74285C14.6829 6.42215 14.6794 5.86613 14.3226 5.54986C14.0163 5.27845 13.5548 5.28133 13.2519 5.55654L7.30658 10.9595L4.74196 8.68664C4.43571 8.41523 3.97417 8.41811 3.67133 8.69332C3.31844 9.01402 3.32191 9.57004 3.67878 9.88631Z" fill="#004FFF"/>
</svg>
